<svg width="239" height="29" viewBox="0 0 239 29" fill="none" xmlns="http://www.w3.org/2000/svg">
<path d="M0.77475 17.816V5.784C0.77475 4.03467 1.22275 2.68 2.11875 1.72C3.01475 0.759999 4.29475 0.279999 5.95875 0.279999C7.62275 0.279999 8.90275 0.759999 9.79875 1.72C10.6948 2.68 11.1428 4.03467 11.1428 5.784V8.152H7.81475V5.56C7.81475 4.17333 7.22808 3.48 6.05475 3.48C4.88142 3.48 4.29475 4.17333 4.29475 5.56V18.072C4.29475 19.4373 4.88142 20.12 6.05475 20.12C7.22808 20.12 7.81475 19.4373 7.81475 18.072V14.808H11.1428V17.816C11.1428 19.5653 10.6948 20.92 9.79875 21.88C8.90275 22.84 7.62275 23.32 5.95875 23.32C4.29475 23.32 3.01475 22.84 2.11875 21.88C1.22275 20.92 0.77475 19.5653 0.77475 17.816ZM19.3943 6.36C19.7783 6.36 20.0983 6.424 20.3542 6.552V9.848C20.0983 9.784 19.8103 9.752 19.4903 9.752C17.5703 9.752 16.6102 11.032 16.6102 13.592V23H13.2183V6.68H16.1623L16.2263 9.432C16.6743 7.384 17.7303 6.36 19.3943 6.36ZM23.883 28.28C23.115 28.28 22.507 28.1733 22.059 27.96V25.08C22.443 25.208 22.859 25.272 23.307 25.272C23.883 25.272 24.299 25.176 24.555 24.984C24.811 24.792 24.9923 24.4293 25.099 23.896L25.163 23.672L21.227 6.68H24.683L26.859 17.912L28.811 6.68H31.979L28.363 24.408C28.0857 25.7947 27.595 26.7867 26.891 27.384C26.2083 27.9813 25.2057 28.28 23.883 28.28ZM39.959 6.36C42.4337 6.36 43.671 7.94933 43.671 11.128V18.552C43.671 21.7307 42.4337 23.32 39.959 23.32C38.743 23.32 37.783 22.8187 37.079 21.816V27.96H33.687V6.68H36.631L36.695 8.6C37.2923 7.10667 38.3803 6.36 39.959 6.36ZM40.279 18.328V11.352C40.279 10.0293 39.799 9.368 38.839 9.368C37.6657 9.368 37.079 10.2427 37.079 11.992V17.688C37.079 19.4373 37.6657 20.312 38.839 20.312C39.799 20.312 40.279 19.6507 40.279 18.328ZM52.846 6.68V9.56H50.382V18.904C50.382 19.416 50.478 19.7787 50.67 19.992C50.8833 20.2053 51.2247 20.312 51.694 20.312C52.0567 20.312 52.4407 20.248 52.846 20.12V23C52.334 23.2133 51.7153 23.32 50.99 23.32C48.3233 23.32 46.99 21.9973 46.99 19.352V9.56H45.134V6.68H47.15L47.47 2.264H50.382V6.68H52.846ZM54.3983 18.008V11.672C54.3983 9.96533 54.8249 8.65333 55.6783 7.736C56.5529 6.81867 57.7903 6.36 59.3903 6.36C60.9903 6.36 62.2169 6.81867 63.0703 7.736C63.9449 8.65333 64.3823 9.96533 64.3823 11.672V18.008C64.3823 19.7147 63.9449 21.0267 63.0703 21.944C62.2169 22.8613 60.9903 23.32 59.3903 23.32C57.7903 23.32 56.5529 22.8613 55.6783 21.944C54.8249 21.0267 54.3983 19.7147 54.3983 18.008ZM60.9903 18.328V11.352C60.9903 10.0293 60.4569 9.368 59.3903 9.368C58.3236 9.368 57.7903 10.0293 57.7903 11.352V18.328C57.7903 19.6507 58.3236 20.312 59.3903 20.312C60.4569 20.312 60.9903 19.6507 60.9903 18.328ZM78.084 23H74.564V3.8H70.884V0.599998H81.764V3.8H78.084V23ZM88.1443 6.36C88.5283 6.36 88.8483 6.424 89.1042 6.552V9.848C88.8483 9.784 88.5603 9.752 88.2403 9.752C86.3203 9.752 85.3602 11.032 85.3602 13.592V23H81.9683V6.68H84.9123L84.9763 9.432C85.4243 7.384 86.4803 6.36 88.1443 6.36ZM100.196 23H97.0915C96.9635 22.744 96.8782 22.104 96.8355 21.08C96.1955 22.5733 95.0435 23.32 93.3795 23.32C92.2915 23.32 91.4275 22.9573 90.7875 22.232C90.1475 21.4853 89.8275 20.4827 89.8275 19.224C89.8275 17.944 90.1262 16.8987 90.7235 16.088C91.3208 15.256 92.3342 14.488 93.7635 13.784C94.9368 13.208 95.6728 12.792 95.9715 12.536C96.2702 12.2373 96.4195 11.8747 96.4195 11.448V11.128C96.4195 9.89067 95.9608 9.272 95.0435 9.272C94.0195 9.272 93.5075 9.90133 93.5075 11.16V11.768H90.3075V11.352C90.3075 9.752 90.7128 8.52533 91.5235 7.672C92.3555 6.79733 93.5395 6.36 95.0755 6.36C96.7182 6.36 97.9128 6.79733 98.6595 7.672C99.4275 8.52533 99.8115 9.88 99.8115 11.736V18.296C99.8115 20.3653 99.9395 21.9333 100.196 23ZM94.6595 20.408C95.8328 20.408 96.4195 19.5013 96.4195 17.688V14.904C96.2702 15.096 95.7155 15.5013 94.7555 16.12C93.7315 16.76 93.2195 17.6027 93.2195 18.648C93.2195 19.8213 93.6995 20.408 94.6595 20.408ZM112.55 23H109.446C109.318 22.744 109.222 22.104 109.158 21.08C108.56 22.5733 107.462 23.32 105.862 23.32C103.408 23.32 102.182 21.7307 102.182 18.552V11.128C102.182 7.94933 103.408 6.36 105.862 6.36C107.099 6.36 108.07 6.86133 108.774 7.864V0.599998H112.166V18.296C112.166 20.3653 112.294 21.9333 112.55 23ZM107.014 20.312C108.187 20.312 108.774 19.4373 108.774 17.688V11.992C108.774 10.2427 108.187 9.368 107.014 9.368C106.054 9.368 105.574 10.0293 105.574 11.352V18.328C105.574 19.6507 106.054 20.312 107.014 20.312ZM118.173 4.664H114.781V0.952H118.173V4.664ZM118.173 23H114.781V6.68H118.173V23ZM127.084 6.36C129.516 6.36 130.732 7.94933 130.732 11.128V23H127.34V11.512C127.34 10.0827 126.871 9.368 125.932 9.368C124.78 9.368 124.204 10.2427 124.204 11.992V23H120.812V6.68H123.756L123.82 8.568C124.439 7.096 125.527 6.36 127.084 6.36ZM139.938 8.6L140.002 6.68H142.946V23.224C142.946 24.9307 142.551 26.2 141.762 27.032C140.972 27.864 139.692 28.28 137.922 28.28C136.322 28.28 135.106 27.9067 134.274 27.16C133.463 26.4133 133.058 25.3253 133.058 23.896V23.8H136.322V24.056C136.322 25.016 136.834 25.496 137.858 25.496C138.988 25.496 139.554 24.824 139.554 23.48V21.016C138.85 22.0187 137.89 22.52 136.674 22.52C134.199 22.52 132.962 20.9307 132.962 17.752V11.128C132.962 7.94933 134.199 6.36 136.674 6.36C138.252 6.36 139.34 7.10667 139.938 8.6ZM137.794 19.512C138.967 19.512 139.554 18.6373 139.554 16.888V11.992C139.554 10.2427 138.967 9.368 137.794 9.368C136.834 9.368 136.354 10.0293 136.354 11.352V17.528C136.354 18.8507 136.834 19.512 137.794 19.512ZM161.983 10.008V13.144H160.991V18.296C160.991 20.2373 161.14 21.8053 161.439 23H158.303C158.154 22.7867 158.058 22.136 158.015 21.048C157.311 22.5627 156.084 23.32 154.335 23.32C151.711 23.32 150.399 21.7307 150.399 18.552V16.056C150.399 13.624 151.263 12.088 152.991 11.448V11.384C151.327 10.7653 150.495 9.26133 150.495 6.872V5.816C150.495 4.024 150.932 2.65867 151.807 1.72C152.703 0.759999 154.015 0.279999 155.743 0.279999C157.471 0.279999 158.772 0.759999 159.647 1.72C160.543 2.68 160.991 4.056 160.991 5.848V6.68H157.727V5.56C157.727 4.13067 157.108 3.416 155.871 3.416C154.591 3.416 153.951 4.184 153.951 5.72V7.608C153.951 8.44 154.132 9.048 154.495 9.432C154.858 9.816 155.444 10.008 156.255 10.008H161.983ZM157.599 17.688V13.144H156.191C155.402 13.144 154.815 13.3573 154.431 13.784C154.047 14.2107 153.855 14.9573 153.855 16.024V18.328C153.855 19.6293 154.41 20.28 155.519 20.28C156.906 20.28 157.599 19.416 157.599 17.688ZM173.638 23.32C171.931 23.32 170.641 22.84 169.766 21.88C168.891 20.8987 168.454 19.5013 168.454 17.688V16.408H171.782V17.944C171.782 19.3947 172.39 20.12 173.606 20.12C174.843 20.12 175.462 19.3733 175.462 17.88C175.462 16.9627 175.238 16.152 174.79 15.448C174.363 14.744 173.563 13.88 172.39 12.856C170.939 11.5547 169.915 10.392 169.318 9.368C168.742 8.30133 168.454 7.128 168.454 5.848C168.454 4.056 168.902 2.68 169.798 1.72C170.694 0.759999 171.995 0.279999 173.702 0.279999C175.366 0.279999 176.635 0.770665 177.51 1.752C178.385 2.712 178.822 4.09867 178.822 5.912V6.84H175.494V5.688C175.494 4.216 174.907 3.48 173.734 3.48C172.539 3.48 171.942 4.19467 171.942 5.624C171.942 6.456 172.166 7.20267 172.614 7.864C173.083 8.58933 173.894 9.44267 175.046 10.424C176.518 11.704 177.531 12.8773 178.086 13.944C178.662 14.9893 178.95 16.216 178.95 17.624C178.95 19.4587 178.491 20.8667 177.574 21.848C176.678 22.8293 175.366 23.32 173.638 23.32ZM184.329 4.664H180.937V0.952H184.329V4.664ZM184.329 23H180.937V6.68H184.329V23ZM193.656 8.6L193.72 6.68H196.664V23.224C196.664 24.9307 196.27 26.2 195.48 27.032C194.691 27.864 193.411 28.28 191.64 28.28C190.04 28.28 188.824 27.9067 187.992 27.16C187.182 26.4133 186.776 25.3253 186.776 23.896V23.8H190.04V24.056C190.04 25.016 190.552 25.496 191.576 25.496C192.707 25.496 193.272 24.824 193.272 23.48V21.016C192.568 22.0187 191.608 22.52 190.392 22.52C187.918 22.52 186.68 20.9307 186.68 17.752V11.128C186.68 7.94933 187.918 6.36 190.392 6.36C191.971 6.36 193.059 7.10667 193.656 8.6ZM191.512 19.512C192.686 19.512 193.272 18.6373 193.272 16.888V11.992C193.272 10.2427 192.686 9.368 191.512 9.368C190.552 9.368 190.072 10.0293 190.072 11.352V17.528C190.072 18.8507 190.552 19.512 191.512 19.512ZM205.553 6.36C207.985 6.36 209.201 7.94933 209.201 11.128V23H205.809V11.512C205.809 10.0827 205.339 9.368 204.401 9.368C203.249 9.368 202.673 10.2427 202.673 11.992V23H199.281V6.68H202.225L202.289 8.568C202.907 7.096 203.995 6.36 205.553 6.36ZM221.414 23H218.31C218.182 22.744 218.097 22.104 218.054 21.08C217.414 22.5733 216.262 23.32 214.598 23.32C213.51 23.32 212.646 22.9573 212.006 22.232C211.366 21.4853 211.046 20.4827 211.046 19.224C211.046 17.944 211.345 16.8987 211.942 16.088C212.54 15.256 213.553 14.488 214.982 13.784C216.156 13.208 216.892 12.792 217.19 12.536C217.489 12.2373 217.638 11.8747 217.638 11.448V11.128C217.638 9.89067 217.18 9.272 216.262 9.272C215.238 9.272 214.726 9.90133 214.726 11.16V11.768H211.526V11.352C211.526 9.752 211.932 8.52533 212.742 7.672C213.574 6.79733 214.758 6.36 216.294 6.36C217.937 6.36 219.132 6.79733 219.878 7.672C220.646 8.52533 221.03 9.88 221.03 11.736V18.296C221.03 20.3653 221.158 21.9333 221.414 23ZM215.878 20.408C217.052 20.408 217.638 19.5013 217.638 17.688V14.904C217.489 15.096 216.934 15.5013 215.974 16.12C214.95 16.76 214.438 17.6027 214.438 18.648C214.438 19.8213 214.918 20.408 215.878 20.408ZM227.016 23H223.625V0.599998H227.016V23ZM233.944 23.32C232.386 23.32 231.17 22.8827 230.296 22.008C229.442 21.1333 229.016 19.9067 229.016 18.328V17.816H232.28V18.424C232.28 19.7467 232.781 20.408 233.784 20.408C234.765 20.408 235.256 19.8213 235.256 18.648C235.256 18.264 235.128 17.912 234.872 17.592C234.637 17.272 234.402 17.0267 234.168 16.856C233.933 16.6853 233.506 16.4187 232.888 16.056C232.162 15.6507 231.714 15.3733 231.544 15.224C231.053 14.84 230.68 14.5307 230.424 14.296C229.592 13.464 229.176 12.3227 229.176 10.872C229.176 9.464 229.57 8.36533 230.36 7.576C231.17 6.76533 232.301 6.36 233.752 6.36C235.16 6.36 236.269 6.78667 237.08 7.64C237.912 8.49333 238.328 9.656 238.328 11.128V11.48H235.128V11.032C235.128 9.85867 234.68 9.272 233.784 9.272C232.909 9.272 232.472 9.784 232.472 10.808C232.472 11.3627 232.664 11.8533 233.048 12.28C233.432 12.6853 234.072 13.1227 234.968 13.592C236.013 14.168 236.824 14.744 237.4 15.32C238.21 16.0667 238.616 17.1547 238.616 18.584C238.616 20.0773 238.21 21.24 237.4 22.072C236.589 22.904 235.437 23.32 233.944 23.32Z" fill="white"/>
</svg>
