<svg width="184" height="184" viewBox="0 0 184 184" fill="none" xmlns="http://www.w3.org/2000/svg">
<rect width="184" height="184" rx="32" fill="#343434"/>
<path fill-rule="evenodd" clip-rule="evenodd" d="M76.3672 30.7266H85.8906V49.2402H93.9766V30.7266H103.5V49.2402H107.743C112.455 49.2402 116.442 50.8701 119.701 54.1297C123 57.3893 124.708 61.4541 124.826 66.3239V79.6015H107.743V72.0739C107.743 68.8982 105.168 66.3239 101.993 66.3239H82.1305C78.9549 66.3239 76.3805 68.8982 76.3805 72.0739V111.884C76.3805 115.059 78.9549 117.634 82.1305 117.634H101.993C105.168 117.634 107.743 115.059 107.743 111.884V104.219H124.826V117.634C124.708 122.464 123 126.529 119.701 129.828C116.442 133.088 112.455 134.717 107.743 134.717H103.5V153.273H93.9766V134.717H85.8906V153.273H76.3672V134.717C71.6602 134.714 67.6589 133.084 64.3631 129.828C61.1034 126.529 59.4147 122.464 59.2969 117.634V66.3239C59.4147 61.4541 61.1034 57.3893 64.3631 54.1297C67.6589 50.8731 71.6602 49.2433 76.3672 49.2402V30.7266Z" fill="#FFD13F"/>
<path d="M80.3967 84.45H89.4803V87.4778H86.4524V99.5996H83.4246V87.4778H80.3967V84.45ZM98.5638 90.5056V87.4778H95.5359V90.5056H98.5638ZM98.5638 84.45C99.399 84.45 100.106 84.7388 100.683 85.3166C101.268 85.8943 101.571 86.6147 101.592 87.4778V90.5056C101.585 91.0973 101.435 91.6263 101.143 92.0927C100.857 92.559 100.474 92.921 99.9942 93.1785L101.592 99.5996H98.5638L97.0499 93.5335H95.5359V99.5996H92.5081V84.45H98.5638ZM110.675 93.5335V87.4778H107.647V93.5335H110.675ZM110.675 84.45C111.51 84.45 112.217 84.7388 112.795 85.3166C113.379 85.8943 113.682 86.6147 113.703 87.4778V99.5996H110.675V96.5718H107.647V99.5996H104.619V87.4778C104.64 86.6147 104.94 85.8943 105.517 85.3166C106.102 84.7388 106.812 84.45 107.647 84.45H110.675ZM122.786 96.5718V87.4778H119.759V96.5718H122.786ZM125.814 96.5718C125.793 97.4279 125.491 98.1483 124.906 98.733C124.328 99.3107 123.622 99.5996 122.786 99.5996H116.731V84.45H122.786C123.622 84.45 124.328 84.7388 124.906 85.3166C125.491 85.8943 125.793 86.6147 125.814 87.4778V96.5718ZM128.842 84.45H131.87V99.5996H128.842V84.45ZM143.981 84.45V99.5996H140.954L137.926 92.3224V99.5996H134.898V84.45H137.926L140.954 91.7168V84.45H143.981ZM150.037 87.4778V96.5718H153.065V93.5335H151.551V90.5056H156.093V99.5996H150.037C149.202 99.5996 148.492 99.3107 147.907 98.733C147.329 98.1483 147.03 97.4279 147.009 96.5718V87.4778C147.03 86.6147 147.329 85.8943 147.907 85.3166C148.492 84.7388 149.202 84.45 150.037 84.45H156.093V87.4778H150.037Z" fill="#FFD13F"/>
<rect x="1" y="1" width="182" height="182" rx="31" stroke="white" stroke-opacity="0.5" stroke-width="2"/>
</svg>
