<svg width="32" height="32" viewBox="0 0 32 32" fill="none" xmlns="http://www.w3.org/2000/svg">
<path d="M16 4C19.6819 4 22.6667 6.98477 22.6667 10.6667L22.6654 13.3333H23.2482C24.4369 13.3333 24.8679 13.4571 25.3025 13.6895C25.7371 13.9219 26.0781 14.263 26.3105 14.6975C26.5429 15.1321 26.6667 15.5632 26.6667 16.7518V24.5815C26.6667 25.7702 26.5429 26.2012 26.3105 26.6358C26.0781 27.0704 25.7371 27.4114 25.3025 27.6438C24.8679 27.8762 24.4369 28 23.2482 28H8.75189C7.5632 28 7.13215 27.8762 6.69758 27.6438C6.26301 27.4114 5.92196 27.0704 5.68955 26.6358C5.45714 26.2012 5.33337 25.7702 5.33337 24.5815V16.7518C5.33337 15.5632 5.45714 15.1321 5.68955 14.6975C5.92196 14.263 6.26301 13.9219 6.69758 13.6895C7.13215 13.4571 7.5632 13.3333 8.75189 13.3333H9.33204L9.33337 10.6667C9.33337 6.98477 12.3181 4 16 4ZM16 6.66667C13.7909 6.66667 12 8.45753 12 10.6667L11.9987 13.3333H19.9987L20 10.6667C20 8.45753 18.2092 6.66667 16 6.66667Z" fill="white"/>
</svg>
