<svg width="25" height="24" viewBox="0 0 25 24" fill="none" xmlns="http://www.w3.org/2000/svg">
<path d="M13.6371 2.22897C13.0214 1.92368 12.232 1.92368 11.6163 2.22897C11.1461 2.46206 10.8545 2.89637 10.6382 3.2832C10.4155 3.6816 10.1762 4.21756 9.89042 4.85735L8.73159 7.45179L7.58135 6.76517C6.90324 6.36035 6.3427 6.02572 5.89184 5.80741C5.46463 5.60055 4.93383 5.39059 4.38491 5.49078C3.68008 5.61942 3.08203 6.08323 2.78204 6.73388C2.54841 7.24059 2.61968 7.80695 2.71372 8.27219C2.81296 8.76319 2.99757 9.38937 3.2209 10.1469L4.38991 14.1123H20.8635L22.0325 10.1469C22.2558 9.38939 22.4404 8.7632 22.5397 8.27218C22.6337 7.80694 22.705 7.24058 22.4713 6.73387C22.1714 6.08322 21.5733 5.6194 20.8685 5.49076C20.3196 5.39058 19.7888 5.60054 19.3615 5.80739C18.9107 6.0257 18.3502 6.36032 17.6721 6.76513L16.5218 7.45179L15.363 4.85739C15.0772 4.2176 14.8378 3.68161 14.6151 3.28321C14.3989 2.89637 14.1072 2.46207 13.6371 2.22897Z" fill="#EEBC0A"/>
<path d="M4.69072 15.9481C4.6907 16.478 4.69069 16.9292 4.72095 17.2996C4.75275 17.6888 4.82238 18.0674 5.0068 18.4293C5.28483 18.975 5.72847 19.4186 6.27414 19.6966C6.63608 19.8811 7.01467 19.9507 7.40383 19.9825C7.68656 20.0056 8.01633 20.0036 8.39223 20.0014C8.50883 20.0007 8.62986 20 8.75531 20H16.497C16.6225 20 16.7435 20.0007 16.8601 20.0014C17.236 20.0036 17.5658 20.0056 17.8485 19.9825C18.2377 19.9507 18.6163 19.8811 18.9782 19.6966C19.5239 19.4186 19.9675 18.975 20.2456 18.4293C20.43 18.0674 20.4996 17.6888 20.5314 17.2996C20.5617 16.9292 20.5617 16.478 20.5616 15.9482L20.5616 15.9123H4.69071L4.69072 15.9481Z" fill="#EEBC0A"/>
</svg>
