<svg width="24" height="24" viewBox="0 0 24 24" fill="none" xmlns="http://www.w3.org/2000/svg">
<path fill-rule="evenodd" clip-rule="evenodd" d="M12 22C17.5228 22 22 17.5228 22 12C22 6.47715 17.5228 2 12 2C6.47715 2 2 6.47715 2 12C2 17.5228 6.47715 22 12 22ZM16.614 9.63087L13.9853 9.37283L12.828 6.64146C12.4656 5.78641 11.537 5.78598 11.1744 6.64137L10.0164 9.37283L7.38824 9.63087C6.46965 9.72106 6.19024 10.6323 6.8995 11.2354L8.95747 12.9854L8.19348 15.8362C7.94255 16.7726 8.72414 17.3369 9.50063 16.7757L12.0012 14.9686L14.5018 16.7757C15.2814 17.3392 16.0598 16.7724 15.8089 15.8362L15.0449 12.9854L17.1029 11.2354C17.8092 10.6348 17.5287 9.72065 16.614 9.63087Z" fill="#54B9F9"/>
</svg>
