<svg width="25" height="24" viewBox="0 0 25 24" fill="none" xmlns="http://www.w3.org/2000/svg">
<path fill-rule="evenodd" clip-rule="evenodd" d="M13.484 1.74879C13.8505 1.80742 14.1971 1.94765 14.5084 2.19666C15.0183 2.60459 15.2611 3.11881 15.4488 3.86952C15.4969 4.06171 15.58 4.28575 15.6839 4.50319C15.9223 4.60452 16.1554 4.71715 16.3827 4.84064C16.6071 4.78521 16.8226 4.71159 16.9946 4.63149C18.2051 4.06796 19.2206 4.09757 20.0522 4.99453C20.1226 5.07039 20.1646 5.12065 20.2559 5.23349L20.7954 5.89961C20.9404 6.07876 21.0024 6.16039 21.0939 6.31269C21.6869 7.29964 21.4557 8.2188 20.7061 9.21481C20.5818 9.38007 20.4548 9.59641 20.3486 9.82401C20.4156 10.0662 20.4714 10.3118 20.5157 10.5601C20.7067 10.713 20.9096 10.8471 21.0889 10.9385C21.7781 11.2903 22.2245 11.6426 22.5073 12.2312C22.6799 12.5905 22.7386 12.9598 22.7133 13.3301C22.6999 13.5258 22.6787 13.6348 22.6223 13.8791L22.4295 14.7143C22.3731 14.9586 22.3443 15.0659 22.2705 15.2476C22.131 15.5915 21.9164 15.8977 21.6037 16.145C21.0915 16.5501 20.5359 16.671 19.7622 16.685C19.5665 16.6886 19.3326 16.7185 19.1 16.7697C18.9487 16.9787 18.7876 17.1805 18.6173 17.3742C18.6202 17.6092 18.6436 17.8402 18.6836 18.0291C18.844 18.7861 18.8512 19.3547 18.5717 19.9449C18.4011 20.3051 18.151 20.5831 17.8473 20.7965C17.6868 20.9093 17.5887 20.9615 17.3634 21.0714L16.593 21.4471C16.3677 21.557 16.2662 21.6021 16.0785 21.6592C15.7234 21.7672 15.3503 21.7931 14.9614 21.7057C14.3243 21.5626 13.8806 21.2069 13.3828 20.6144C13.2513 20.4578 13.0715 20.2874 12.876 20.1339C12.751 20.1396 12.6257 20.1424 12.5 20.1424C12.3744 20.1424 12.249 20.1396 12.124 20.1339C11.9286 20.2874 11.7488 20.4578 11.6172 20.6144C11.1194 21.2069 10.6757 21.5626 10.0386 21.7057C9.64968 21.7931 9.27663 21.7672 8.92155 21.6592C8.73387 21.6021 8.63234 21.557 8.40702 21.4471L7.63662 21.0714C7.56889 21.0384 7.52688 21.0176 7.4778 20.992C6.35361 20.4066 6.02405 19.4088 6.31642 18.0291C6.35644 17.8402 6.37981 17.6092 6.38272 17.3742C6.21241 17.1805 6.05133 16.9787 5.90007 16.7697C5.66742 16.7185 5.43355 16.6886 5.23784 16.685C4.46414 16.671 3.90848 16.5501 3.39631 16.145C3.08365 15.8977 2.86904 15.5915 2.72948 15.2476C2.6557 15.0659 2.62689 14.9586 2.5705 14.7143L2.37769 13.8791C2.31798 13.6205 2.29599 13.5052 2.28466 13.2956C2.26343 12.9028 2.3386 12.5125 2.538 12.1422C2.82853 11.6027 3.25856 11.2716 3.91116 10.9385C4.09041 10.8471 4.29335 10.713 4.48429 10.5601C4.52865 10.3118 4.58446 10.0662 4.65147 9.82401C4.54524 9.59641 4.41826 9.38007 4.29389 9.21481C3.54433 8.2188 3.31309 7.29964 3.90611 6.31269C3.99763 6.16039 4.0596 6.07876 4.20467 5.89961L4.74409 5.23349C4.83546 5.12065 4.87746 5.07039 4.9478 4.99453C5.7794 4.09757 6.79489 4.06796 8.00539 4.63149C8.17745 4.71159 8.39291 4.78521 8.61727 4.84064C8.84457 4.71715 9.07776 4.60452 9.31611 4.50319C9.42001 4.28575 9.50315 4.06171 9.5512 3.86952C9.73887 3.11881 9.9817 2.60459 10.4916 2.19666C10.8029 1.94765 11.1495 1.80742 11.516 1.74879C11.671 1.724 11.773 1.71652 11.936 1.71452L12.9286 1.71387C13.1793 1.71387 13.2903 1.7178 13.484 1.74879ZM16.3572 11.9996C16.3572 9.86934 14.6303 8.14244 12.5 8.14244C10.3698 8.14244 8.64287 9.86934 8.64287 11.9996C8.64287 14.1298 10.3698 15.8567 12.5 15.8567C14.6303 15.8567 16.3572 14.1298 16.3572 11.9996Z" fill="#54B9F9"/>
</svg>
