<svg width="25" height="24" viewBox="0 0 25 24" fill="none" xmlns="http://www.w3.org/2000/svg">
<path fill-rule="evenodd" clip-rule="evenodd" d="M12.5 22C18.0228 22 22.5 17.5228 22.5 12C22.5 6.47715 18.0228 2 12.5 2C6.97715 2 2.5 6.47715 2.5 12C2.5 17.5228 6.97715 22 12.5 22ZM17.5 8C17.5 9.10457 16.6046 10 15.5 10C15.1324 10 14.788 9.90082 14.492 9.72777L10.5156 12L14.492 14.2722C14.788 14.0992 15.1324 14 15.5 14C16.6046 14 17.5 14.8954 17.5 16C17.5 17.1046 16.6046 18 15.5 18C14.3984 18 13.5048 17.1094 13.5 16.0089L9.50803 13.7278C9.21205 13.9008 8.86761 14 8.5 14C7.39543 14 6.5 13.1046 6.5 12C6.5 10.8954 7.39543 10 8.5 10C8.86761 10 9.21205 10.0992 9.50803 10.2722L13.5 7.99109C13.5048 6.89062 14.3984 6 15.5 6C16.6046 6 17.5 6.89543 17.5 8Z" fill="#54B9F9"/>
</svg>
