<svg width="25" height="24" viewBox="0 0 25 24" fill="none" xmlns="http://www.w3.org/2000/svg">
<path fill-rule="evenodd" clip-rule="evenodd" d="M19.3666 2.87381C18.2924 2.29931 17.2583 2.09961 15.0904 2.09961H9.90981C7.7419 2.09961 6.70776 2.29931 5.63354 2.87381C4.66189 3.39346 3.89395 4.1614 3.3743 5.13306C2.7998 6.20728 2.6001 7.24141 2.6001 9.40932V14.5899C2.6001 16.7578 2.7998 17.7919 3.3743 18.8662C3.89395 19.8378 4.66189 20.6058 5.63354 21.1254C6.70776 21.6999 7.7419 21.8996 9.90981 21.8996H15.0904C17.2583 21.8996 18.2924 21.6999 19.3666 21.1254C20.3383 20.6058 21.1062 19.8378 21.6259 18.8662C22.2004 17.7919 22.4001 16.7578 22.4001 14.5899V9.40932C22.4001 7.24141 22.2004 6.20728 21.6259 5.13306C21.1062 4.1614 20.3383 3.39346 19.3666 2.87381ZM15.5001 7.99951C14.9478 7.99951 14.5001 8.44723 14.5001 8.99951C14.5001 9.46923 14.8239 9.8633 15.2605 9.97064L13.1764 12.2552L12.1364 11.0851C11.9555 10.8817 11.6995 10.7607 11.4274 10.7503C11.1554 10.7398 10.8908 10.8407 10.6948 11.0297L6.80596 14.7797C6.4084 15.163 6.39689 15.7961 6.78025 16.1936C7.16361 16.5912 7.79667 16.6027 8.19423 16.2194L11.3335 13.1922L12.4193 14.4139C12.6076 14.6257 12.8769 14.7477 13.1603 14.7495C13.4437 14.7513 13.7145 14.6328 13.9055 14.4235L16.5412 11.5343C16.6639 11.9479 17.0468 12.2495 17.5001 12.2495C18.0524 12.2495 18.5001 11.8018 18.5001 11.2495V8.99951C18.5001 8.44723 18.0524 7.99951 17.5001 7.99951H15.5001Z" fill="white"/>
</svg>
