<svg width="24" height="24" viewBox="0 0 24 24" fill="none" xmlns="http://www.w3.org/2000/svg">
<path fill-rule="evenodd" clip-rule="evenodd" d="M12 22C17.5228 22 22 17.5228 22 12C22 6.47715 17.5228 2 12 2C6.47715 2 2 6.47715 2 12C2 17.5228 6.47715 22 12 22ZM15.8974 13.6509C15.1098 12.9888 13.9255 13.0582 13.1731 13.8105L12.7653 14.2184C12.6564 14.3275 12.494 14.3633 12.3493 14.3103C11.9437 14.1611 11.4363 13.7825 10.827 13.1732C10.2183 12.5645 9.83916 12.057 9.69057 11.6508C9.6374 11.5062 9.67305 11.3438 9.78193 11.2347L10.1903 10.8269C10.9426 10.0745 11.0114 8.88951 10.3482 8.10301L9.86943 7.53391C9.32294 6.8839 8.33837 6.8184 7.6697 7.38695C7.42102 7.60127 7.23407 7.87811 7.12816 8.18887C7.08239 8.32414 7.05283 8.46437 7.04011 8.60661C6.7952 10.4246 7.6719 12.3328 9.66965 14.3307C11.6674 16.3286 13.5749 17.2048 15.3932 16.9599C15.8656 16.9148 16.3025 16.6893 16.6128 16.3302C17.1819 15.6621 17.1158 14.6769 16.4664 14.1303L15.8974 13.6509Z" fill="#54B9F9"/>
</svg>
