<svg width="25" height="24" viewBox="0 0 25 24" fill="none" xmlns="http://www.w3.org/2000/svg">
<path d="M2.5 12C2.5 17.52 6.98 22 12.5 22C18.02 22 22.5 17.52 22.5 12C22.5 6.48 18.02 2 12.5 2C6.98 2 2.5 6.48 2.5 12ZM11.25 18.25V17.75C11.25 17.1977 11.6977 16.75 12.25 16.75H12.75C13.3023 16.75 13.75 17.1977 13.75 17.75V18.25C13.75 18.8023 13.3023 19.25 12.75 19.25H12.25C11.6977 19.25 11.25 18.8023 11.25 18.25ZM14.67 12.17C14.1347 12.7127 13.7487 13.1835 13.5858 14.0057C13.5783 14.0436 13.5712 14.0872 13.5644 14.1365C13.4962 14.6314 13.0733 15 12.5737 15H12.5C11.9711 15 11.5424 14.5713 11.5424 14.0424C11.5424 14.0153 11.5435 13.9882 11.5459 13.9612C11.5542 13.8635 11.5632 13.7897 11.5729 13.7396C11.7276 12.9427 12.12 12.2276 12.67 11.67L13.91 10.41C14.28 10.05 14.5 9.55 14.5 9C14.5 7.9 13.6 7 12.5 7C11.801 7 11.1828 7.36339 10.825 7.91057C10.7616 8.00737 10.7044 8.13709 10.6534 8.29971C10.5224 8.71646 10.1362 9 9.69932 9H9.5C9.02841 9 8.64612 8.6177 8.64612 8.14612C8.64612 8.08264 8.6532 8.01937 8.66724 7.95746C8.72771 7.6905 8.79635 7.47471 8.87314 7.31009C9.50979 5.94528 10.894 5 12.5 5C14.71 5 16.5 6.79 16.5 9C16.5 9.88 16.14 10.68 15.57 11.25L14.67 12.17Z" fill="#54B9F9"/>
</svg>
