<svg width="25" height="24" viewBox="0 0 25 24" fill="none" xmlns="http://www.w3.org/2000/svg">
<path fill-rule="evenodd" clip-rule="evenodd" d="M19.3666 2.87381C18.2924 2.29931 17.2583 2.09961 15.0904 2.09961H9.90981C7.7419 2.09961 6.70776 2.29931 5.63354 2.87381C4.66189 3.39346 3.89395 4.1614 3.3743 5.13306C2.7998 6.20728 2.6001 7.24141 2.6001 9.40932V14.5899C2.6001 16.7578 2.7998 17.7919 3.3743 18.8662C3.89395 19.8378 4.66189 20.6058 5.63354 21.1254C6.70776 21.6999 7.7419 21.8996 9.90981 21.8996H15.0904C17.2583 21.8996 18.2924 21.6999 19.3666 21.1254C20.3383 20.6058 21.1062 19.8378 21.6259 18.8662C22.2004 17.7919 22.4001 16.7578 22.4001 14.5899V9.40932C22.4001 7.24141 22.2004 6.20728 21.6259 5.13306C21.1062 4.1614 20.3383 3.39346 19.3666 2.87381ZM10.8071 5.09961H11.8951V7.21463H12.8188V5.09961H13.9068V7.21463H14.3915C14.9299 7.21463 15.3853 7.40082 15.7577 7.77321C16.1345 8.1456 16.3297 8.60996 16.3432 9.1663V10.6832H14.3915V9.82319C14.3915 9.4604 14.0974 9.1663 13.7346 9.1663H11.4655C11.1027 9.1663 10.8086 9.4604 10.8086 9.82319V14.3712C10.8086 14.7339 11.1027 15.0281 11.4655 15.0281H13.7346C14.0974 15.0281 14.3915 14.7339 14.3915 14.3712V13.4955H16.3432V15.0281C16.3297 15.5799 16.1345 16.0443 15.7577 16.4211C15.3853 16.7935 14.9299 16.9797 14.3915 16.9797H13.9068V19.0996H12.8188V16.9797H11.8951V19.0996H10.8071V16.9797C10.2694 16.9794 9.81223 16.7932 9.43571 16.4211C9.06332 16.0443 8.87039 15.5799 8.85693 15.0281V9.1663C8.87039 8.60996 9.06332 8.1456 9.43571 7.77321C9.81223 7.40117 10.2694 7.21498 10.8071 7.21463V5.09961Z" fill="white"/>
</svg>
